PathFileType	4	(X/Y/Z)	KinectSkeleton.trc																																																	
DataRate	CameraRate	NumFrames	NumMarkers	Units	OrigDataRate	OrigDataStartFrame	OrigNumFrames																																													
60	60	15	17	mm	60	1	300																																													
Frame#	Time	Neck			ShoulderMid			R.Shoulder			L.Shoulder			R.Elbow			L.Elbow			R.Wrist			L.Wrist			HipCenter			R.Hip			L.Hip			R.Knee			L.Knee			R.Ankle			L.Ankle			R.Foot			L.Foot		
		X1	Y1	Z1	X2	Y2	Z2	X3	Y3	Z3	X4	Y4	Z4	X5	Y5	Z5	X6	Y6	Z6	X7	Y7	Z7	X8	Y8	Z8	X9	Y9	Z9	X10	Y10	Z10	X11	Y11	Z11	X12	Y12	Z12	X13	Y13	Z13	X14	Y14	Z14	X15	Y15	Z15	X16	Y16	Z16	X17	Y17	Z17
																																																				
1	0.079	-1322.517	1367.675	567.977	-1322.517	1367.675	567.977	-1307.213	1288.901	728.109	-1330.393	1292.644	394.362	-1346.465	1014.142	796.385	-1381.411	1025.29	326.476	-1238.473	801.659	802.131	-1262.497	823.061	306.609	-1344.477	822.652	578.821	-1341.928	824.866	662.218	-1347.305	820.197	486.338	-1380.998	422.711	701.409	-1398.846	419.619	441.314	-1473.308	42.061	726.111	-1483.926	42.555	403.622	-1347.866	-74.616	761.656	-1338.334	-77.435	379.757
2	0.14	-1324.449	1367.694	564.271	-1324.449	1367.694	564.271	-1308.506	1289.802	726.662	-1329.78	1297.432	387.141	-1347.256	1012.032	796.545	-1386.119	1027.228	321.688	-1236.515	797.99	803.734	-1269.769	820.211	304.629	-1345.01	816.593	578.085	-1344.047	819.761	662.423	-1346.078	813.08	484.558	-1386.33	413.34	701.784	-1402.88	408.417	440.962	-1474.792	27.279	727.059	-1488.022	26.892	403.099	-1339.4	-79.079	767.822	-1331.176	-81.682	378.757
3	0.219	-1327.349	1369.392	559.402	-1327.349	1369.392	559.402	-1309.794	1293.475	723.162	-1332.886	1298.004	382.431	-1347.753	1015.328	795.149	-1390.397	1026.017	322.31	-1235.05	801.524	800.289	-1278.102	816.262	302.782	-1344.29	816.8	576.403	-1342.438	819.985	660.952	-1346.343	813.268	482.643	-1384.65	412.538	701.248	-1403.391	407.4	440.206	-1475.976	26.103	727.316	-1489.501	24.896	403.502	-1338.731	-78.818	767.661	-1331.019	-82.032	378.411
4	0.279	-1327.101	1367.602	558.842	-1327.101	1367.602	558.842	-1309.548	1289.43	721.218	-1332.911	1296.026	381.952	-1345.89	1010.897	790.311	-1393.947	1026.112	318.568	-1235.387	796.405	792.314	-1282.952	815.859	302.783	-1344.155	816.021	575.625	-1343.048	819.84	660.001	-1345.381	811.785	482.054	-1387.198	413.4	700.527	-1403.167	406.782	439.842	-1473.914	26.772	728.05	-1488.485	24.837	403.379	-1337.314	-78.755	767.538	-1330.656	-82.414	378.325
5	0.353	-1328.764	1366.98	557.443	-1328.764	1366.98	557.443	-1310.621	1288.925	719.738	-1333.995	1295.986	380.375	-1343.572	1009.625	787.221	-1395.619	1025.896	318.531	-1232.704	795.357	788.181	-1286.478	814.752	302.29	-1343.781	815.617	574.719	-1342.754	819.71	659.07	-1344.919	811.079	481.177	-1383.474	413.14	701.19	-1403.32	406.193	439.328	-1472.954	27.157	727.99	-1489.41	24.443	403.304	-1338.288	-78.801	772.519	-1330.583	-80.115	373.805
6	0.413	-1329.997	1367.387	554.596	-1329.997	1367.387	554.596	-1311.591	1289.208	717.095	-1334.474	1295.243	377.756	-1343.531	1009.871	785.953	-1396.607	1024.693	317.344	-1232.492	795.472	788.264	-1283.915	815.053	303.012	-1342.663	815.502	574.826	-1342.396	820.117	659.228	-1342.959	810.383	481.227	-1384.7	413.328	701.076	-1403.569	405.486	439.195	-1471.976	26.689	730.571	-1491.034	23.74	402.798	-1335.237	-79.575	768.099	-1331.635	-80.976	375.99
7	0.475	-1330.998	1370.679	549.562	-1330.998	1370.679	549.562	-1313.76	1290.606	712.688	-1335.789	1295.886	372.977	-1342.776	1010.163	783.304	-1398.443	1023.713	314.963	-1231.667	794.73	788.175	-1282.45	814.634	302.673	-1344.076	816.591	572.832	-1343.862	821.239	657.578	-1344.313	811.437	478.852	-1386.61	412.975	701.127	-1404.273	404.536	438.766	-1470.935	24.046	731.028	-1490.585	20.818	402.954	-1332.466	-80.873	769.416	-1329.281	-82.448	376.255
8	0.535	-1329.495	1366.693	550.489	-1329.495	1366.693	550.489	-1310.769	1290.391	713.729	-1336.021	1294.524	373.414	-1346.418	1011.482	784.074	-1393.95	1022.116	315.475	-1232.884	798.036	781.774	-1276.958	814.328	303.664	-1343.477	814.204	571.431	-1343.86	819.117	655.926	-1343.053	808.754	477.729	-1384.677	411.918	700.452	-1404.586	403.275	437.414	-1470.358	24.491	731.249	-1491.864	20.796	402.751	-1333.71	-81.557	770.765	-1331.243	-83.159	378.6
9	0.597	-1328.111	1365.933	551.131	-1328.111	1365.933	551.131	-1309.248	1289.861	714.56	-1334.566	1294.192	374.074	-1346.073	1010.876	784.126	-1396.131	1022.742	315.242	-1231.943	797.718	781.804	-1280.449	814.234	302.704	-1344.089	813.327	570.947	-1343.246	817.598	655.483	-1345.023	808.591	477.2	-1383.701	410.338	700.207	-1405.726	402.799	438.337	-1471.059	23.255	731.185	-1492.438	20.034	404.936	-1332.026	-79.428	771.348	-1331.388	-82.656	378.202
10	0.672	-1328.757	1366.678	549.277	-1328.757	1366.678	549.277	-1310.824	1290.778	713.186	-1335.38	1293.873	372.426	-1348.972	1011.583	782.412	-1391.53	1020.929	313.703	-1235.815	797.62	781.825	-1270.063	815.39	302.343	-1343.043	813.484	570.623	-1342.524	817.866	655.242	-1343.618	808.625	476.785	-1384.785	410.376	700.013	-1406.128	402.678	438.003	-1471.716	22.83	731.544	-1493.975	19.765	404.589	-1333.585	-82.73	767.976	-1330.806	-80.025	378.326
11	0.729	-1330.236	1366.774	549.495	-1330.236	1366.774	549.495	-1312.468	1289.823	712.889	-1335.281	1293.886	372.553	-1348.362	1010.419	781.973	-1390.234	1021.141	312.364	-1233.898	797.269	780.699	-1269.155	815.491	300.944	-1343.423	813.839	570.858	-1343.085	818.549	655.424	-1343.798	808.616	477.077	-1385.578	411.259	700.228	-1405.836	402.771	438.282	-1471.765	23.694	731.488	-1493.516	20.023	404.466	-1333.873	-81.119	770.531	-1331.149	-80.973	378.433
12	0.778	-1330.456	1366.409	549.796	-1330.456	1366.409	549.796	-1312.416	1290.102	713.331	-1334.828	1294.323	372.682	-1348.812	1011.265	784.275	-1392.555	1022.531	310.958	-1235.539	797.513	782.762	-1269.629	817.898	301.803	-1344.583	813.538	570.53	-1343.989	818.043	655.096	-1345.241	808.542	476.75	-1385.265	410.692	700.034	-1406.792	402.692	437.748	-1473.37	23.6	731.211	-1494.861	20.042	404.392	-1334.302	-79.786	769.788	-1332.874	-80.791	375.67
13	0.842	-1330.138	1366.461	549.83	-1330.138	1366.461	549.83	-1313.445	1290.253	713.562	-1334.12	1294.644	372.645	-1350.489	1010.915	782.161	-1388.766	1022.228	310.866	-1237.131	797.204	781.778	-1267.915	816.383	301.296	-1345.578	813.659	570.854	-1344.988	818.219	655.417	-1346.232	808.603	477.077	-1387.473	410.953	699.993	-1406.444	402.539	438.219	-1471.853	23.054	731.431	-1492.935	19.543	404.705	-1332.807	-80.231	770.355	-1331.87	-82.691	375.752
14	0.918	-1330.297	1367.141	549.828	-1330.297	1367.141	549.828	-1312.845	1290.909	713.787	-1333.612	1295.007	372.371	-1351.312	1011.251	782.533	-1392.306	1022.849	310.776	-1237.557	797.252	781.641	-1271.099	816.717	300.995	-1346.686	813.28	570.774	-1345.851	817.798	655.492	-1347.612	808.27	476.825	-1387.271	409.688	700.284	-1408.069	401.501	437.738	-1472.116	21.201	732.416	-1493.906	17.628	404.131	-1330.764	-79.927	770.161	-1331.016	-83.296	378.652
15	0.976	-1328.524	1366.375	549.704	-1328.524	1366.375	549.704	-1313.287	1290.292	713.664	-1331.644	1293.507	372.674	-1351.057	1010.897	782.161	-1389.939	1021.701	310.978	-1239.822	795.955	782.671	-1271.435	814.405	300.811	-1350.043	813.436	570.394	-1349.34	817.925	654.996	-1350.822	808.458	476.573	-1389.285	410.263	699.938	-1408.595	401.892	437.38	-1473.546	22.25	732.446	-1492.888	18.216	404.042	-1334.216	-81.155	770.377	-1330.243	-82.522	378.296
